<svg width="30" height="30" viewBox="0 0 30 30" fill="none" xmlns="http://www.w3.org/2000/svg">
<path fill-rule="evenodd" clip-rule="evenodd" d="M7.94625 14.8067L10.655 17.6409C10.7563 17.7396 10.8376 17.8588 10.8939 17.9911C10.9503 18.1235 10.9806 18.2664 10.9831 18.4112C10.9855 18.5561 10.96 18.7 10.9082 18.8344C10.8563 18.9687 10.7791 19.0908 10.6812 19.1932C10.5833 19.2957 10.4666 19.3765 10.3382 19.4307C10.2098 19.485 10.0722 19.5117 9.93378 19.5091C9.79531 19.5065 9.65876 19.4748 9.53226 19.4159C9.40576 19.3569 9.29191 19.2719 9.1975 19.1658L4.72875 14.4902L4 13.7277L4.72875 12.9652L9.1975 8.28959C9.39299 8.099 9.65155 7.99524 9.91872 8.00017C10.1859 8.0051 10.4408 8.11834 10.6297 8.31603C10.8187 8.51372 10.9269 8.78043 10.9316 9.05996C10.9363 9.33949 10.8372 9.61003 10.655 9.81457L7.94625 12.6487H21.5312C22.7164 12.6487 23.8531 13.1413 24.6911 14.0182C25.5292 14.895 26 16.0843 26 17.3244C26 18.5644 25.5292 19.7537 24.6911 20.6305C23.8531 21.5074 22.7164 22 21.5312 22H18.7812C18.5077 22 18.2454 21.8863 18.052 21.684C17.8587 21.4816 17.75 21.2072 17.75 20.921C17.75 20.6348 17.8587 20.3604 18.052 20.158C18.2454 19.9557 18.5077 19.842 18.7812 19.842H21.5312C22.1694 19.842 22.7815 19.5768 23.2327 19.1046C23.684 18.6325 23.9375 17.9921 23.9375 17.3244C23.9375 16.6566 23.684 16.0163 23.2327 15.5441C22.7815 15.072 22.1694 14.8067 21.5312 14.8067H7.94625Z" fill="white"/>
</svg>
