<svg width="30" height="30" viewBox="0 0 30 30" fill="none" xmlns="http://www.w3.org/2000/svg">
<path d="M12.7485 25.1408C13.2204 25.3641 13.6 25.5874 13.8574 25.7519C14.2279 25.9886 14.5386 26.2667 15.0014 26.2667C15.4538 26.2667 15.7749 25.9859 16.1428 25.7519C16.4002 25.5874 16.7797 25.3641 17.2516 25.1408C18.2045 24.6875 19.4759 24.261 20.85 24.261C22.5127 24.261 24.0194 24.8868 24.984 25.4136C25.2884 25.5776 25.6278 25.661 25.9714 25.6563C26.315 25.6516 26.6521 25.559 26.9522 25.3868C27.5073 25.0713 28 24.4375 28 23.5924V6.87811C28 6.04775 27.6165 5.1893 26.8326 4.69991C25.8264 4.07145 23.5618 2.86668 20.85 2.86668C18.9741 2.86668 17.3205 3.44166 16.161 3.99256C15.7008 4.21185 15.3082 4.43114 15.0001 4.61834C14.692 4.43114 14.2994 4.21185 13.8392 3.99256C12.6796 3.44299 11.026 2.86668 9.15008 2.86668C6.4383 2.86668 4.17371 4.07011 3.16751 4.69991C2.80711 4.92892 2.51028 5.24975 2.30577 5.63135C2.10125 6.01295 1.99597 6.44239 2.00012 6.87811V23.5924C2.00012 24.4388 2.49282 25.0713 3.04791 25.3868C3.59781 25.6984 4.34271 25.7813 5.0174 25.4136C5.9807 24.8868 7.48739 24.261 9.15008 24.261C10.5242 24.261 11.7956 24.6889 12.7485 25.1408Z" fill="black" fill-opacity="0.8"/>
</svg>
