<svg width="30" height="30" viewBox="0 0 30 30" fill="none" xmlns="http://www.w3.org/2000/svg">
<path d="M21.9225 19.1545C21.3773 19.1181 21.0139 18.9814 20.711 18.6352C20.1052 17.9429 20.1052 17.0775 20.9485 16.3643L22.3686 15.1034C24.5438 13.1817 24.5438 10.0316 22.3686 8.10948C20.7655 6.6984 18.6141 6 16.378 6C13.7671 6 11.0389 6.95197 8.93562 8.8174C5.02146 12.2791 5.02146 17.9442 8.93562 21.4037C10.8827 23.1242 13.5062 23.9823 16.1028 24H16.1824C18.7786 24 21.3345 23.1562 23.1574 21.5435C23.9995 20.7988 23.9995 20.5824 23.1609 19.3085C22.961 18.9814 22.5716 19.1977 21.9225 19.1545ZM8.7686 12.9234C8.7686 12.6495 8.84981 12.3818 9.00195 12.1541C9.15409 11.9264 9.37034 11.7489 9.62335 11.6441C9.87636 11.5393 10.1548 11.5119 10.4233 11.5653C10.6919 11.6188 10.9387 11.7506 11.1323 11.9443C11.3259 12.1379 11.4578 12.3847 11.5112 12.6533C11.5647 12.9219 11.5372 13.2003 11.4324 13.4533C11.3276 13.7063 11.1502 13.9226 10.9225 14.0747C10.6948 14.2269 10.4271 14.3081 10.1532 14.3081C9.786 14.3081 9.43381 14.1622 9.17415 13.9025C8.91448 13.6428 8.7686 13.2907 8.7686 12.9234ZM10.4994 18.765C10.2255 18.765 9.95782 18.6838 9.73012 18.5317C9.50242 18.3795 9.32495 18.1633 9.22015 17.9102C9.11535 17.6572 9.08793 17.3788 9.14136 17.1102C9.19479 16.8416 9.32666 16.5949 9.5203 16.4012C9.71394 16.2076 9.96066 16.0757 10.2293 16.0223C10.4978 15.9689 10.7762 15.9963 11.0293 16.1011C11.2823 16.2059 11.4985 16.3834 11.6507 16.6111C11.8028 16.8388 11.884 17.1065 11.884 17.3804C11.884 17.7476 11.7381 18.0998 11.4785 18.3595C11.2188 18.6192 10.8666 18.765 10.4994 18.765ZM12.2302 10.154C12.2302 9.88018 12.3114 9.61247 12.4635 9.38476C12.6157 9.15705 12.8319 8.97957 13.0849 8.87477C13.3379 8.76996 13.6163 8.74254 13.8849 8.79597C14.1535 8.8494 14.4002 8.98128 14.5939 9.17493C14.7875 9.36858 14.9194 9.61531 14.9728 9.88391C15.0262 10.1525 14.9988 10.4309 14.894 10.6839C14.7892 10.937 14.6117 11.1532 14.384 11.3054C14.1563 11.4575 13.8886 11.5387 13.6148 11.5387C13.2476 11.5387 12.8954 11.3928 12.6357 11.1332C12.376 10.8735 12.2302 10.5213 12.2302 10.154ZM14.9994 21.8806C14.5886 21.8806 14.1871 21.7588 13.8455 21.5305C13.504 21.3023 13.2378 20.9779 13.0806 20.5984C12.9234 20.2189 12.8822 19.8012 12.9624 19.3983C13.0425 18.9954 13.2403 18.6253 13.5308 18.3349C13.8213 18.0444 14.1913 17.8466 14.5942 17.7664C14.9971 17.6863 15.4147 17.7274 15.7942 17.8846C16.1737 18.0418 16.4981 18.3081 16.7263 18.6496C16.9545 18.9912 17.0763 19.3928 17.0763 19.8035C17.0763 20.3544 16.8575 20.8827 16.468 21.2722C16.0785 21.6617 15.5502 21.8806 14.9994 21.8806ZM18.1148 11.5387C17.841 11.5387 17.5733 11.4575 17.3456 11.3054C17.1179 11.1532 16.9404 10.937 16.8356 10.6839C16.7308 10.4309 16.7034 10.1525 16.7568 9.88391C16.8102 9.61531 16.9421 9.36858 17.1357 9.17493C17.3294 8.98128 17.5761 8.8494 17.8447 8.79597C18.1133 8.74254 18.3917 8.76996 18.6447 8.87477C18.8977 8.97957 19.1139 9.15705 19.2661 9.38476C19.4182 9.61247 19.4994 9.88018 19.4994 10.154C19.4994 10.5213 19.3536 10.8735 19.0939 11.1332C18.8342 11.3928 18.482 11.5387 18.1148 11.5387Z" fill="black"/>
</svg>
