<svg width="30" height="30" viewBox="0 0 30 30" fill="none" xmlns="http://www.w3.org/2000/svg">
<path d="M23.75 3.75H18.525C18 2.3 16.625 1.25 15 1.25C13.375 1.25 12 2.3 11.475 3.75H6.25C4.875 3.75 3.75 4.875 3.75 6.25V23.75C3.75 25.125 4.875 26.25 6.25 26.25H23.75C25.125 26.25 26.25 25.125 26.25 23.75V6.25C26.25 4.875 25.125 3.75 23.75 3.75ZM15 3.4375C15.5125 3.4375 15.9375 3.8625 15.9375 4.375C15.9375 4.8875 15.5125 5.3125 15 5.3125C14.4875 5.3125 14.0625 4.8875 14.0625 4.375C14.0625 3.8625 14.4875 3.4375 15 3.4375ZM11.125 21.25H9.375C9.025 21.25 8.75 20.975 8.75 20.625V18.8375C8.75 18.675 8.8125 18.5125 8.9375 18.4L16.2 11.1375L18.85 13.7875L11.5625 21.075C11.4451 21.1882 11.2881 21.251 11.125 21.25ZM21.0625 11.5875L19.7375 12.9125L17.0875 10.2625L18.4125 8.9375C18.6625 8.6875 19.05 8.6875 19.3 8.9375L21.0625 10.7C21.3125 10.95 21.3125 11.3375 21.0625 11.5875Z" fill="white" fill-opacity="0.8"/>
</svg>
