<svg width="30" height="30" viewBox="0 0 30 30" fill="none" xmlns="http://www.w3.org/2000/svg">
<path d="M12 24L6 24M6 24L6 18M6 24L17.5 12.5M11.5 12.5L17.5 12.5M17.5 12.5L17.5 18.5" stroke="black" stroke-opacity="0.8" stroke-width="2" stroke-linecap="round" stroke-linejoin="round"/>
<path d="M16 24L23 24C23.2652 24 23.5196 23.8946 23.7071 23.7071C23.8946 23.5196 24 23.2652 24 23L24 7C24 6.73478 23.8946 6.48043 23.7071 6.29289C23.5196 6.10535 23.2652 6 23 6L7 6C6.73478 6 6.48043 6.10535 6.29289 6.29289C6.10536 6.48043 6 6.73478 6 7L6 14" stroke="black" stroke-opacity="0.8" stroke-width="2" stroke-linecap="round" stroke-linejoin="round"/>
</svg>
