<svg width="30" height="30" viewBox="0 0 30 30" fill="none" xmlns="http://www.w3.org/2000/svg">
<path d="M16 8C16 7.73478 15.8946 7.48043 15.7071 7.29289C15.5196 7.10536 15.2652 7 15 7C14.7348 7 14.4804 7.10536 14.2929 7.29289C14.1054 7.48043 14 7.73478 14 8V9C14 9.26522 14.1054 9.51957 14.2929 9.70711C14.4804 9.89464 14.7348 10 15 10C15.2652 10 15.5196 9.89464 15.7071 9.70711C15.8946 9.51957 16 9.26522 16 9V8ZM20.657 10.757C20.8392 10.5684 20.94 10.3158 20.9377 10.0536C20.9354 9.7914 20.8302 9.54059 20.6448 9.35518C20.4594 9.16977 20.2086 9.0646 19.9464 9.06233C19.6842 9.06005 19.4316 9.16084 19.243 9.343L18.536 10.05C18.3538 10.2386 18.253 10.4912 18.2553 10.7534C18.2576 11.0156 18.3628 11.2664 18.5482 11.4518C18.7336 11.6372 18.9844 11.7424 19.2466 11.7447C19.5088 11.747 19.7614 11.6462 19.95 11.464L20.657 10.757ZM23 15C23 15.2652 22.8946 15.5196 22.7071 15.7071C22.5196 15.8946 22.2652 16 22 16H21C20.7348 16 20.4804 15.8946 20.2929 15.7071C20.1054 15.5196 20 15.2652 20 15C20 14.7348 20.1054 14.4804 20.2929 14.2929C20.4804 14.1054 20.7348 14 21 14H22C22.2652 14 22.5196 14.1054 22.7071 14.2929C22.8946 14.4804 23 14.7348 23 15ZM10.05 11.464C10.1422 11.5595 10.2526 11.6357 10.3746 11.6881C10.4966 11.7405 10.6278 11.7681 10.7606 11.7693C10.8934 11.7704 11.0251 11.7451 11.148 11.6948C11.2709 11.6445 11.3825 11.5703 11.4764 11.4764C11.5703 11.3825 11.6445 11.2709 11.6948 11.148C11.7451 11.0251 11.7704 10.8934 11.7693 10.7606C11.7681 10.6278 11.7405 10.4966 11.6881 10.3746C11.6357 10.2526 11.5595 10.1422 11.464 10.05L10.757 9.343C10.5684 9.16084 10.3158 9.06005 10.0536 9.06233C9.7914 9.0646 9.54059 9.16977 9.35518 9.35518C9.16977 9.54059 9.0646 9.7914 9.06233 10.0536C9.06005 10.3158 9.16084 10.5684 9.343 10.757L10.05 11.464ZM10 15C10 15.2652 9.89464 15.5196 9.70711 15.7071C9.51957 15.8946 9.26522 16 9 16H8C7.73478 16 7.48043 15.8946 7.29289 15.7071C7.10536 15.5196 7 15.2652 7 15C7 14.7348 7.10536 14.4804 7.29289 14.2929C7.48043 14.1054 7.73478 14 8 14H9C9.26522 14 9.51957 14.1054 9.70711 14.2929C9.89464 14.4804 10 14.7348 10 15ZM13 21V20H17V21C17 21.5304 16.7893 22.0391 16.4142 22.4142C16.0391 22.7893 15.5304 23 15 23C14.4696 23 13.9609 22.7893 13.5858 22.4142C13.2107 22.0391 13 21.5304 13 21ZM17 19C17.015 18.66 17.208 18.354 17.477 18.141C18.1297 17.6263 18.6058 16.921 18.8391 16.1232C19.0725 15.3253 19.0515 14.4747 18.7791 13.6893C18.5067 12.904 17.9964 12.223 17.3191 11.7411C16.6418 11.2592 15.8312 11.0002 15 11.0002C14.1688 11.0002 13.3582 11.2592 12.6809 11.7411C12.0036 12.223 11.4933 12.904 11.2209 13.6893C10.9485 14.4747 10.9275 15.3253 11.1609 16.1232C11.3942 16.921 11.8703 17.6263 12.523 18.141C12.793 18.354 12.985 18.66 12.999 19H17.001H17Z" fill="black" fill-opacity="0.7"/>
</svg>
