<svg width="30" height="30" viewBox="0 0 30 30" fill="none" xmlns="http://www.w3.org/2000/svg">
<path d="M12.663 20H17.336M15 6V7M21.364 8.636L20.657 9.343M24 15H23M7 15H6M9.343 9.343L8.636 8.636M11.464 18.536C10.7649 17.8367 10.2888 16.9458 10.096 15.9759C9.90316 15.006 10.0023 14.0008 10.3807 13.0872C10.7592 12.1737 11.4001 11.3928 12.2223 10.8435C13.0445 10.2941 14.0111 10.0009 15 10.0009C15.9889 10.0009 16.9555 10.2941 17.7777 10.8435C18.5999 11.3928 19.2408 12.1737 19.6193 13.0872C19.9977 14.0008 20.0968 15.006 19.904 15.9759C19.7112 16.9458 19.2351 17.8367 18.536 18.536L17.988 19.083C17.6747 19.3963 17.4262 19.7683 17.2567 20.1777C17.0872 20.5871 16.9999 21.0259 17 21.469V22C17 22.5304 16.7893 23.0391 16.4142 23.4142C16.0391 23.7893 15.5304 24 15 24C14.4696 24 13.9609 23.7893 13.5858 23.4142C13.2107 23.0391 13 22.5304 13 22V21.469C13 20.574 12.644 19.715 12.012 19.083L11.464 18.536Z" stroke="black" stroke-opacity="0.7" stroke-width="2" stroke-linecap="round" stroke-linejoin="round"/>
</svg>
