<svg width="24" height="26" viewBox="0 0 24 26" fill="none" xmlns="http://www.w3.org/2000/svg">
<path d="M20.75 2.75H15.525C15 1.3 13.625 0.25 12 0.25C10.375 0.25 9 1.3 8.475 2.75H3.25C1.875 2.75 0.75 3.875 0.75 5.25V22.75C0.75 24.125 1.875 25.25 3.25 25.25H20.75C22.125 25.25 23.25 24.125 23.25 22.75V5.25C23.25 3.875 22.125 2.75 20.75 2.75ZM12 2.4375C12.5125 2.4375 12.9375 2.8625 12.9375 3.375C12.9375 3.8875 12.5125 4.3125 12 4.3125C11.4875 4.3125 11.0625 3.8875 11.0625 3.375C11.0625 2.8625 11.4875 2.4375 12 2.4375ZM8.125 20.25H6.375C6.025 20.25 5.75 19.975 5.75 19.625V17.8375C5.75 17.675 5.8125 17.5125 5.9375 17.4L13.2 10.1375L15.85 12.7875L8.5625 20.075C8.44508 20.1882 8.28808 20.251 8.125 20.25ZM18.0625 10.5875L16.7375 11.9125L14.0875 9.2625L15.4125 7.9375C15.6625 7.6875 16.05 7.6875 16.3 7.9375L18.0625 9.7C18.3125 9.95 18.3125 10.3375 18.0625 10.5875Z" fill="black" fill-opacity="0.8"/>
</svg>
