<svg width="64" height="64" viewBox="0 0 64 64" fill="none" xmlns="http://www.w3.org/2000/svg">
<g opacity="0.8">
<path d="M40.75 11.75H35.525C35 10.3 33.625 9.25 32 9.25C30.375 9.25 29 10.3 28.475 11.75H23.25C21.875 11.75 20.75 12.875 20.75 14.25V31.75C20.75 33.125 21.875 34.25 23.25 34.25H40.75C42.125 34.25 43.25 33.125 43.25 31.75V14.25C43.25 12.875 42.125 11.75 40.75 11.75ZM32 11.4375C32.5125 11.4375 32.9375 11.8625 32.9375 12.375C32.9375 12.8875 32.5125 13.3125 32 13.3125C31.4875 13.3125 31.0625 12.8875 31.0625 12.375C31.0625 11.8625 31.4875 11.4375 32 11.4375ZM28.125 29.25H26.375C26.025 29.25 25.75 28.975 25.75 28.625V26.8375C25.75 26.675 25.8125 26.5125 25.9375 26.4L33.2 19.1375L35.85 21.7875L28.5625 29.075C28.4451 29.1882 28.2881 29.251 28.125 29.25ZM38.0625 19.5875L36.7375 20.9125L34.0875 18.2625L35.4125 16.9375C35.6625 16.6875 36.05 16.6875 36.3 16.9375L38.0625 18.7C38.3125 18.95 38.3125 19.3375 38.0625 19.5875Z" fill="white" fill-opacity="0.8"/>
<path d="M17.7529 54.096C17.5209 54.096 17.3409 54.032 17.2129 53.904C17.0929 53.776 17.0329 53.592 17.0329 53.352V46.212C17.0329 45.964 17.0929 45.776 17.2129 45.648C17.3409 45.512 17.5049 45.444 17.7049 45.444C17.8889 45.444 18.0249 45.48 18.1129 45.552C18.2089 45.616 18.3209 45.728 18.4489 45.888L23.0449 51.852H22.7329V46.176C22.7329 45.944 22.7929 45.764 22.9129 45.636C23.0409 45.508 23.2209 45.444 23.4529 45.444C23.6849 45.444 23.8609 45.508 23.9809 45.636C24.1009 45.764 24.1609 45.944 24.1609 46.176V53.376C24.1609 53.6 24.1049 53.776 23.9929 53.904C23.8809 54.032 23.7289 54.096 23.5369 54.096C23.3529 54.096 23.2049 54.06 23.0929 53.988C22.9889 53.916 22.8729 53.8 22.7449 53.64L18.1609 47.676H18.4609V53.352C18.4609 53.592 18.4009 53.776 18.2809 53.904C18.1609 54.032 17.9849 54.096 17.7529 54.096ZM28.3015 54.12C27.6935 54.12 27.1655 53.996 26.7175 53.748C26.2695 53.5 25.9215 53.148 25.6735 52.692C25.4255 52.228 25.3015 51.684 25.3015 51.06C25.3015 50.588 25.3695 50.168 25.5055 49.8C25.6495 49.424 25.8535 49.104 26.1175 48.84C26.3815 48.568 26.6975 48.364 27.0655 48.228C27.4335 48.084 27.8455 48.012 28.3015 48.012C28.9095 48.012 29.4375 48.136 29.8855 48.384C30.3335 48.632 30.6815 48.984 30.9295 49.44C31.1775 49.896 31.3015 50.436 31.3015 51.06C31.3015 51.532 31.2295 51.956 31.0855 52.332C30.9495 52.708 30.7495 53.032 30.4855 53.304C30.2215 53.568 29.9055 53.772 29.5375 53.916C29.1695 54.052 28.7575 54.12 28.3015 54.12ZM28.3015 52.98C28.5975 52.98 28.8575 52.908 29.0815 52.764C29.3055 52.62 29.4775 52.408 29.5975 52.128C29.7255 51.84 29.7895 51.484 29.7895 51.06C29.7895 50.42 29.6535 49.944 29.3815 49.632C29.1095 49.312 28.7495 49.152 28.3015 49.152C28.0055 49.152 27.7455 49.224 27.5215 49.368C27.2975 49.504 27.1215 49.716 26.9935 50.004C26.8735 50.284 26.8135 50.636 26.8135 51.06C26.8135 51.692 26.9495 52.172 27.2215 52.5C27.4935 52.82 27.8535 52.98 28.3015 52.98ZM34.9289 54.12C34.4089 54.12 33.9729 54.032 33.6209 53.856C33.2769 53.68 33.0209 53.424 32.8529 53.088C32.6849 52.744 32.6009 52.32 32.6009 51.816V49.26H31.9769C31.7849 49.26 31.6369 49.212 31.5329 49.116C31.4289 49.012 31.3769 48.872 31.3769 48.696C31.3769 48.512 31.4289 48.372 31.5329 48.276C31.6369 48.18 31.7849 48.132 31.9769 48.132H32.6009V47.04C32.6009 46.792 32.6649 46.604 32.7929 46.476C32.9289 46.348 33.1169 46.284 33.3569 46.284C33.5969 46.284 33.7809 46.348 33.9089 46.476C34.0369 46.604 34.1009 46.792 34.1009 47.04V48.132H35.3729C35.5649 48.132 35.7129 48.18 35.8169 48.276C35.9209 48.372 35.9729 48.512 35.9729 48.696C35.9729 48.872 35.9209 49.012 35.8169 49.116C35.7129 49.212 35.5649 49.26 35.3729 49.26H34.1009V51.732C34.1009 52.116 34.1849 52.404 34.3529 52.596C34.5209 52.788 34.7929 52.884 35.1689 52.884C35.3049 52.884 35.4249 52.872 35.5289 52.848C35.6329 52.824 35.7249 52.808 35.8049 52.8C35.9009 52.792 35.9809 52.824 36.0449 52.896C36.1089 52.96 36.1409 53.096 36.1409 53.304C36.1409 53.464 36.1129 53.608 36.0569 53.736C36.0089 53.856 35.9169 53.94 35.7809 53.988C35.6769 54.02 35.5409 54.048 35.3729 54.072C35.2049 54.104 35.0569 54.12 34.9289 54.12ZM39.4398 54.12C38.7758 54.12 38.2038 53.996 37.7238 53.748C37.2438 53.5 36.8718 53.148 36.6078 52.692C36.3518 52.236 36.2238 51.696 36.2238 51.072C36.2238 50.464 36.3478 49.932 36.5958 49.476C36.8518 49.02 37.1998 48.664 37.6398 48.408C38.0878 48.144 38.5958 48.012 39.1638 48.012C39.5798 48.012 39.9518 48.08 40.2798 48.216C40.6158 48.352 40.8998 48.548 41.1318 48.804C41.3718 49.06 41.5518 49.372 41.6718 49.74C41.7998 50.1 41.8638 50.508 41.8638 50.964C41.8638 51.108 41.8118 51.22 41.7078 51.3C41.6118 51.372 41.4718 51.408 41.2878 51.408H37.4358V50.544H40.8078L40.6158 50.724C40.6158 50.356 40.5598 50.048 40.4478 49.8C40.3438 49.552 40.1878 49.364 39.9798 49.236C39.7798 49.1 39.5278 49.032 39.2238 49.032C38.8878 49.032 38.5998 49.112 38.3598 49.272C38.1278 49.424 37.9478 49.644 37.8198 49.932C37.6998 50.212 37.6398 50.548 37.6398 50.94V51.024C37.6398 51.68 37.7918 52.172 38.0958 52.5C38.4078 52.82 38.8638 52.98 39.4638 52.98C39.6718 52.98 39.9038 52.956 40.1598 52.908C40.4238 52.852 40.6718 52.76 40.9038 52.632C41.0718 52.536 41.2198 52.496 41.3478 52.512C41.4758 52.52 41.5758 52.564 41.6478 52.644C41.7278 52.724 41.7758 52.824 41.7918 52.944C41.8078 53.056 41.7838 53.172 41.7198 53.292C41.6638 53.412 41.5638 53.516 41.4198 53.604C41.1398 53.78 40.8158 53.912 40.4478 54C40.0878 54.08 39.7518 54.12 39.4398 54.12ZM44.9597 54.12C44.6157 54.12 44.2517 54.084 43.8677 54.012C43.4837 53.94 43.1397 53.816 42.8357 53.64C42.7077 53.56 42.6157 53.468 42.5597 53.364C42.5117 53.252 42.4917 53.144 42.4997 53.04C42.5157 52.928 42.5557 52.832 42.6197 52.752C42.6917 52.672 42.7797 52.62 42.8837 52.596C42.9957 52.572 43.1157 52.592 43.2437 52.656C43.5637 52.808 43.8637 52.916 44.1437 52.98C44.4237 53.036 44.6997 53.064 44.9717 53.064C45.3557 53.064 45.6397 53 45.8237 52.872C46.0157 52.736 46.1117 52.56 46.1117 52.344C46.1117 52.16 46.0477 52.02 45.9197 51.924C45.7997 51.82 45.6157 51.744 45.3677 51.696L44.1677 51.468C43.6717 51.372 43.2917 51.192 43.0277 50.928C42.7717 50.656 42.6437 50.308 42.6437 49.884C42.6437 49.5 42.7477 49.168 42.9557 48.888C43.1717 48.608 43.4677 48.392 43.8437 48.24C44.2197 48.088 44.6517 48.012 45.1397 48.012C45.4917 48.012 45.8197 48.052 46.1237 48.132C46.4357 48.204 46.7357 48.32 47.0237 48.48C47.1437 48.544 47.2237 48.628 47.2637 48.732C47.3117 48.836 47.3237 48.944 47.2997 49.056C47.2757 49.16 47.2277 49.256 47.1557 49.344C47.0837 49.424 46.9917 49.476 46.8797 49.5C46.7757 49.516 46.6557 49.492 46.5197 49.428C46.2717 49.3 46.0317 49.208 45.7997 49.152C45.5757 49.096 45.3597 49.068 45.1517 49.068C44.7597 49.068 44.4677 49.136 44.2757 49.272C44.0917 49.408 43.9997 49.588 43.9997 49.812C43.9997 49.98 44.0557 50.12 44.1677 50.232C44.2797 50.344 44.4517 50.42 44.6837 50.46L45.8837 50.688C46.4037 50.784 46.7957 50.96 47.0597 51.216C47.3317 51.472 47.4677 51.816 47.4677 52.248C47.4677 52.832 47.2397 53.292 46.7837 53.628C46.3277 53.956 45.7197 54.12 44.9597 54.12Z" fill="white" fill-opacity="0.8"/>
<rect x="0.5" y="0.5" width="63" height="63" rx="9.5" stroke="white" stroke-opacity="0.8"/>
</g>
</svg>
