<svg width="18" height="21" viewBox="0 0 18 21" fill="none" xmlns="http://www.w3.org/2000/svg">
<path d="M6 2V0H12V2H6ZM8 13H10V7H8V13ZM9 21C7.76667 21 6.604 20.7623 5.512 20.287C4.42 19.8117 3.466 19.166 2.65 18.35C1.83333 17.5333 1.18733 16.579 0.712001 15.487C0.236668 14.395 -0.000665266 13.2327 1.40056e-06 12C1.40056e-06 10.7667 0.237668 9.604 0.713001 8.512C1.18833 7.42 1.834 6.466 2.65 5.65C3.46667 4.83333 4.421 4.18733 5.513 3.712C6.605 3.23667 7.76733 2.99933 9 3C10.0333 3 11.025 3.16667 11.975 3.5C12.925 3.83333 13.8167 4.31667 14.65 4.95L16.05 3.55L17.45 4.95L16.05 6.35C16.6833 7.18333 17.1667 8.075 17.5 9.025C17.8333 9.975 18 10.9667 18 12C18 13.2333 17.7623 14.396 17.287 15.488C16.8117 16.58 16.166 17.534 15.35 18.35C14.5333 19.1667 13.579 19.8127 12.487 20.288C11.395 20.7633 10.2327 21.0007 9 21Z" fill="black"/>
</svg>
