<svg width="30" height="30" viewBox="0 0 30 30" fill="none" xmlns="http://www.w3.org/2000/svg">
<g opacity="0.8">
<path d="M12 6V4H18V6H12ZM14 17H16V11H14V17ZM15 25C13.7667 25 12.604 24.7623 11.512 24.287C10.42 23.8117 9.466 23.166 8.65 22.35C7.83333 21.5333 7.18733 20.579 6.712 19.487C6.23667 18.395 5.99933 17.2327 6 16C6 14.7667 6.23767 13.604 6.713 12.512C7.18833 11.42 7.834 10.466 8.65 9.65C9.46667 8.83333 10.421 8.18733 11.513 7.712C12.605 7.23667 13.7673 6.99933 15 7C16.0333 7 17.025 7.16667 17.975 7.5C18.925 7.83333 19.8167 8.31667 20.65 8.95L22.05 7.55L23.45 8.95L22.05 10.35C22.6833 11.1833 23.1667 12.075 23.5 13.025C23.8333 13.975 24 14.9667 24 16C24 17.2333 23.7623 18.396 23.287 19.488C22.8117 20.58 22.166 21.534 21.35 22.35C20.5333 23.1667 19.579 23.8127 18.487 24.288C17.395 24.7633 16.2327 25.0007 15 25Z" fill="black"/>
</g>
</svg>
